<svg width="600" height="601" viewBox="0 0 600 601" fill="none" xmlns="http://www.w3.org/2000/svg">
<path d="M171.438 374.607C166.333 373.67 161.376 373.754 157.407 372.853C142.56 369.48 127.18 364.127 114.374 356.097C107.268 351.642 103.237 346.164 96.4257 341.264C92.4221 338.384 87.0339 332.124 84.6393 329.271C78.0603 321.431 75.2226 313.544 69.7467 304.927C65.5489 298.322 62.4473 291.703 59.9727 284.075C57.3317 275.935 56.8914 265.927 57.7866 257.423C59.9153 237.204 76.0728 214.417 94.9573 206.57C113.624 198.814 145.957 215.161 142.184 209.237C138.41 203.312 136.755 202.719 133.16 199.232C127.982 194.209 122.981 190.461 119.346 184.184C116.456 179.196 115.36 176.038 116.649 170.361C118.157 163.727 118.842 155.913 121.718 149.784C125.632 141.443 132.264 133.946 138.035 126.911C143.066 120.779 152.107 116.218 160.457 115.395C180.482 113.418 197.595 120.472 214.844 129.291C216.585 130.181 220.809 132.082 222.942 133.24M171.438 374.607C176.625 375.559 179.632 375.822 183.525 373.37C186.311 371.615 184.225 369.836 182.849 369.524C180.241 368.931 179.643 370.016 177.208 370.773C175.693 371.244 173.336 373.123 171.438 374.607ZM171.438 374.607C169.415 376.188 165.125 378.235 161.91 381.521C146.473 397.304 135.189 430.26 135.654 464.094C136.005 489.731 142.397 509.138 151.072 528.893C157.681 543.942 179.417 567.42 199.876 575.705C226.932 586.661 260.397 559.941 264.369 556.171C282.431 539.024 293.282 530.011 305.056 504.476C308.957 496.016 311.108 490.103 312.957 481.966C314.791 473.891 316.919 466.834 317.369 458.551C317.797 450.677 321.352 440.754 318.194 433.396C316.874 430.322 313.241 432.978 312.763 435.081C311.782 439.398 316.079 443.677 319.726 448.177C325.175 454.903 332.415 459.375 337.846 463.203C344.871 468.155 353.526 471.605 361.532 474.27C377.898 479.717 390.884 484.84 407.656 488.65C416.149 490.58 422.877 489.458 431.159 486.297C438.324 483.562 442.289 478.505 446.569 471.958C455.156 458.823 457.902 450.044 461.379 434.74C462.903 428.029 465.143 418.739 463.608 412.167C462.825 408.813 461.524 406.936 460.488 403.616M460.488 403.616C459.094 399.151 457.334 394.812 454.84 390.852C454.228 389.88 449.301 383.053 447.567 385.375C446.038 387.421 444.698 391.165 446.645 393.25C451.033 397.948 455.485 401.126 460.488 403.616ZM460.488 403.616C464.204 405.466 469.341 408.385 473.843 409.81C480.301 411.854 486.739 414.679 495.052 416.077C504.916 417.736 513.527 417.66 519.099 413.29C528.74 405.729 533.22 399.084 537.219 387.562C541.663 374.757 544.857 361.088 540.707 347.624C533.704 324.908 513.39 310.145 496.82 294.939C491.098 289.687 485.722 283.852 478.877 280.173C474.139 277.626 465.62 272.633 465.62 272.633M465.62 272.633C465.62 272.633 450.797 269.262 449.762 270.978C448.726 272.695 465.62 272.633 465.62 272.633ZM465.62 272.633C465.62 272.633 474.253 270.238 479.561 268.629C483.401 267.464 499.343 262.223 506.529 252.201C515.155 240.172 513.936 225.115 511.581 214.636C508.782 202.18 499.05 192.891 487.984 186.181C477.672 179.927 467.85 176.644 456.024 173.957C451.744 172.985 444.929 171.518 445.217 173.22C445.786 176.594 462.31 162.263 467.436 157.75C474.409 151.61 478.767 142.043 482.741 133.647C486.839 124.988 489.369 118.722 492.803 108.257C496.621 96.6254 499.436 85.9114 500.225 75.5879C501.001 65.4401 496.724 58.7013 491.35 50.3818C488.138 45.4089 482.282 40.2354 477.382 37.0928C471.64 33.4105 466.466 30.7091 458.753 27.5167C446.613 22.492 436.373 21.0728 425.007 23.5722C416.469 25.4497 408.514 33.0221 401.349 40.3378C391.878 50.0066 385.653 57.4728 378.875 69.1108C375.367 75.1348 370.934 80.4017 367.76 86.5311C364.335 93.1465 361.665 98.3644 359.364 105.428C357.414 111.411 354.528 117.432 353.015 123.536C352.067 127.359 351.494 122.995 351.373 121.389C350.977 116.129 348.922 111.526 346.11 107.061C343.035 102.178 340.492 96.9057 335.67 93.6475C331.957 91.1378 328.466 86.4446 325.065 83.6546C321.716 80.9071 317.977 78.0636 316.261 75.9688C314.924 74.3361 312.355 72.1541 310.502 71.1667C308.111 69.8925 303.693 66.7861 298.803 64.4672C292.203 61.3379 281.963 59.6782 275.899 58.3006C264.938 55.8106 258.927 54.9921 247.627 54.5202C242.898 54.3228 237.853 54.4616 233.411 56.3386C228.902 58.2444 226.718 61.842 223.596 65.3479C218.606 70.9513 216.426 80.3661 216.354 87.6794C216.266 96.6345 213.861 106.997 216.369 115.599C218.098 121.529 221.413 127.447 222.942 133.24M222.942 133.24C223.71 136.151 224.915 139.832 226.245 142.652C227.382 145.063 232.117 152.653 233.64 145.948C235.044 139.765 228.26 136.129 222.942 133.24ZM377.45 230.103C378.987 223.34 376.409 215.458 373.68 209.351C371.513 204.499 366.756 200.837 362.334 197.752C356.066 193.377 346.156 191.806 338.792 190.133C327.239 187.508 314.85 183.244 302.949 185.635C297.362 186.758 291.512 190.062 286.874 193.275C281.98 196.666 276.733 199.806 272.158 203.614C267.502 207.491 263.446 211.702 258.516 215.273C254.354 218.288 250.665 221.813 247.061 225.457C243.224 229.335 239.17 232.208 236.112 236.831C234.131 239.827 231.859 242.639 230.186 245.821C227.937 250.1 224.679 253.916 223.225 258.579C222.142 262.055 221.491 265.685 220.685 269.235C217.012 285.402 214.114 303.672 219.657 319.786C222.332 327.564 228.338 334.215 233.405 340.535C238.839 347.313 243.71 354.443 250.547 360.024C257.501 365.7 266.023 369.552 274.369 372.724C277.646 373.971 280.496 375.311 283.94 376.094C292.76 378.098 301.457 380.839 310.599 379.461C316.725 378.538 323.305 377.618 329.515 377.724C335.251 377.822 341.156 376.02 346.849 375.329C351.312 374.787 354.801 374.748 359.071 373.358C363.685 371.856 368.796 367.632 373.114 365.363C379.292 362.118 383.157 356.376 387.956 347.633C393.541 337.461 394.387 327.53 398.034 318.336C400.871 311.186 403.138 304.021 404.842 296.522L404.965 295.981C407.237 285.982 409.482 276.103 409.259 265.769C409.171 261.688 408.896 257.428 408.123 253.412C407.849 251.988 405.67 247.837 406.435 246.905M338.313 255.627C341.1 256.532 340.718 258.862 337.987 258.242C335.929 257.774 336.165 256.339 338.196 256.138M305.446 229.878C307.485 230.843 307.083 236.473 303.523 234.788C301.028 233.607 305.097 231.612 305.725 231.016M328.696 316.894C324.914 316.035 320.182 316.89 316.268 317.028C311.472 317.198 306.922 317.775 302.135 316.775C293.366 314.944 285.659 308.942 280.508 301.645C275.25 294.194 270.903 286.609 267.624 278.016C265.127 271.475 262.097 265.065 261.404 258.051" stroke="#FF4980" stroke-width="6" stroke-linecap="round"/>
</svg>
