<svg width="601" height="601" viewBox="0 0 601 601" fill="none" xmlns="http://www.w3.org/2000/svg">
<path d="M188.96 406.849C183.775 407.066 178.959 408.246 174.888 408.246C159.664 408.246 143.48 406.433 129.214 401.44C121.297 398.669 116.153 394.221 108.425 390.951C103.883 389.03 97.2417 384.119 94.2745 381.867C86.1223 375.68 81.6078 368.617 74.3592 361.428C68.8024 355.916 64.3115 350.149 60.2088 343.259C55.83 335.906 53.1836 326.245 52.1728 317.754C49.7694 297.566 60.4773 271.765 77.1543 259.929C93.6389 248.231 128.79 257.01 123.798 252.068C118.806 247.127 117.06 246.915 112.783 244.311C106.62 240.56 100.914 238.013 95.9775 232.697C92.0551 228.473 90.2861 225.637 90.2861 219.815C90.2861 213.011 89.2237 205.24 90.6707 198.626C92.6395 189.625 97.4459 180.845 101.515 172.707C105.062 165.612 112.869 159.162 120.828 156.509C139.919 150.146 158.168 153.233 176.943 158.012C178.838 158.494 183.377 159.412 185.714 160.07M188.96 406.849C194.229 406.628 197.219 406.218 200.472 402.965C202.801 400.637 200.372 399.364 198.961 399.364C196.287 399.364 195.944 400.554 193.737 401.831C192.364 402.627 190.482 404.982 188.96 406.849ZM188.96 406.849C187.337 408.839 183.607 411.785 181.2 415.702C169.643 434.512 165.941 469.149 173.889 502.04C179.911 526.962 190.443 544.47 203.279 561.813C213.057 575.024 239.455 593.103 261.241 596.65C290.052 601.34 316.766 567.871 319.803 563.314C333.618 542.592 342.203 531.399 348.028 503.891C349.958 494.776 350.746 488.534 350.746 480.189C350.746 471.909 351.257 464.556 349.861 456.379C348.534 448.606 349.802 438.142 345.093 431.666C343.125 428.961 340.17 432.356 340.17 434.512C340.17 438.939 345.308 442.16 349.861 445.741C356.665 451.092 364.716 453.849 370.859 456.379C378.808 459.652 388.012 461.099 396.409 461.924C413.575 463.61 427.374 465.729 444.573 465.729C453.282 465.729 459.594 463.145 466.97 458.227C473.351 453.973 476.098 448.164 478.821 440.832C484.285 426.12 485.018 416.951 485.018 401.257C485.018 394.375 485.144 384.82 482.191 378.751C480.684 375.654 479.001 374.111 477.255 371.104M477.255 371.104C474.906 367.059 472.228 363.217 468.92 359.908C468.107 359.096 461.79 353.53 460.613 356.178C459.576 358.512 459.099 362.46 461.459 364.062C466.779 367.671 471.824 369.784 477.255 371.104ZM477.255 371.104C481.288 372.085 486.944 373.793 491.65 374.185C498.401 374.748 505.304 376.077 513.721 375.598C523.706 375.031 532.087 373.049 536.552 367.553C544.278 358.044 547.176 350.572 548.523 338.45C550.019 324.979 550.106 310.942 543.076 298.732C531.215 278.132 508.136 268.236 488.609 257.078C481.866 253.225 475.33 248.726 467.84 246.654C462.655 245.22 453.242 242.238 453.242 242.238M453.242 242.238C453.242 242.238 438.041 242.234 437.411 244.138C436.782 246.041 453.242 242.238 453.242 242.238ZM453.242 242.238C453.242 242.238 461.131 237.991 465.95 235.245C469.437 233.259 483.821 224.616 488.609 213.252C494.355 199.61 489.831 185.198 485.213 175.5C479.725 163.974 468.176 157.072 455.899 152.98C444.458 149.166 434.152 148.14 422.025 148.14C417.636 148.14 410.666 148.219 411.323 149.816C412.626 152.98 425.565 135.344 429.563 129.807C435.003 122.275 437.133 111.981 439.148 102.913C441.226 93.5615 442.305 86.8907 443.336 75.9252C444.482 63.7364 444.853 52.665 443.336 42.4232C441.845 32.3557 436.181 26.7317 429.098 19.8094C424.864 15.6717 418.008 11.9238 412.533 9.94494C406.118 7.62618 400.474 6.13784 392.246 4.73352C379.294 2.52319 368.994 3.40755 358.464 8.36272C350.554 12.0851 344.475 21.2315 339.108 29.9529C332.015 41.4793 327.598 50.1392 323.567 62.9895C321.48 69.641 318.324 75.7591 316.587 82.4392C314.712 89.6491 313.265 95.3287 312.585 102.727C312.01 108.993 310.529 115.504 310.406 121.791C310.328 125.729 308.803 121.6 308.329 120.061C306.778 115.02 303.754 110.987 300.023 107.255C295.942 103.175 292.294 98.5968 286.871 96.4877C282.693 94.8631 278.25 91.0598 274.315 89.0925C270.441 87.1552 266.165 85.2105 264.028 83.5479C262.362 82.2521 259.373 80.6935 257.348 80.1411C254.734 79.4282 249.737 77.3777 244.455 76.1998C237.326 74.6101 226.972 75.2602 220.754 75.2602C209.514 75.2602 203.471 75.7936 192.347 77.8368C187.692 78.6918 182.803 79.9448 178.888 82.7591C174.912 85.6166 173.58 89.6086 171.312 93.719C167.687 100.289 167.647 109.953 169.197 117.1C171.095 125.852 171.045 136.49 175.397 144.322C178.397 149.722 182.94 154.759 185.714 160.07M185.714 160.07C187.108 162.738 189.098 166.06 191.02 168.516C192.663 170.615 198.962 176.967 198.962 170.092C198.962 163.751 191.54 161.708 185.714 160.07ZM357.842 220.298C357.842 213.362 353.582 206.247 349.568 200.896C346.379 196.644 340.93 194.128 335.935 192.098C328.853 189.221 318.841 189.884 311.289 189.884C299.442 189.884 286.416 188.47 275.341 193.438C270.141 195.771 265.169 200.289 261.358 204.45C257.337 208.841 252.915 213.065 249.297 217.792C245.616 222.604 242.594 227.608 238.577 232.183C235.186 236.045 232.37 240.3 229.663 244.652C226.781 249.284 223.464 252.983 221.506 258.169C220.237 261.529 218.645 264.775 217.719 268.248C216.473 272.92 214.141 277.362 213.757 282.231C213.47 285.86 213.64 289.545 213.64 293.185C213.64 309.764 214.861 328.222 223.836 342.708C228.168 349.7 235.498 354.855 241.84 359.896C248.64 365.301 254.969 371.175 262.873 375.103C270.912 379.098 280.075 380.965 288.916 382.211C292.388 382.7 295.464 383.376 298.996 383.376C308.041 383.376 317.129 384.123 325.738 380.754C331.507 378.497 337.721 376.142 343.8 374.87C349.415 373.694 354.774 370.629 360.172 368.694C364.405 367.176 367.798 366.365 371.654 364.064C375.821 361.578 379.869 356.326 383.577 353.157C388.883 348.624 391.38 342.168 394.123 332.58C397.316 321.423 395.94 311.551 397.46 301.779C398.643 294.178 399.267 286.688 399.267 278.998L399.267 278.443C399.267 268.189 399.268 258.059 396.761 248.031C395.771 244.071 394.56 239.977 392.916 236.233C392.333 234.905 389.289 231.339 389.828 230.261M325.331 253.857C328.249 254.122 328.393 256.479 325.593 256.479C323.482 256.479 323.394 255.027 325.331 254.381M287.576 236.029C289.779 236.518 290.634 242.098 286.79 241.243C284.094 240.644 287.62 237.798 288.101 237.077M329.526 315.733C325.647 315.733 321.222 317.614 317.436 318.617C312.797 319.845 308.488 321.415 303.599 321.501C294.641 321.658 285.796 317.512 279.157 311.538C272.378 305.437 266.46 299.002 261.358 291.349C257.474 285.524 253.099 279.945 250.87 273.259" stroke="#222222" stroke-width="6" stroke-linecap="round"/>
</svg>
