<svg width="601" height="601" viewBox="0 0 601 601" fill="none" xmlns="http://www.w3.org/2000/svg">
<path d="M171.85 374.607C166.746 373.67 161.788 373.754 157.819 372.853C142.972 369.48 127.592 364.127 114.786 356.097C107.68 351.642 103.65 346.164 96.8378 341.264C92.8342 338.384 87.446 332.124 85.0514 329.271C78.4724 321.431 75.6348 313.544 70.1588 304.927C65.961 298.322 62.8594 291.703 60.3849 284.075C57.7438 275.935 57.3035 265.927 58.1988 257.423C60.3274 237.204 76.4849 214.417 95.3694 206.57C114.036 198.814 146.369 215.161 142.596 209.237C138.822 203.312 137.167 202.719 133.572 199.232C128.394 194.209 123.393 190.461 119.758 184.184C116.868 179.196 115.772 176.038 117.062 170.361C118.569 163.727 119.254 155.913 122.13 149.784C126.044 141.443 132.676 133.946 138.447 126.911C143.478 120.779 152.519 116.218 160.869 115.395C180.894 113.418 198.007 120.472 215.256 129.291C216.997 130.181 221.221 132.082 223.354 133.24M171.85 374.607C177.037 375.559 180.044 375.822 183.937 373.37C186.723 371.615 184.637 369.836 183.261 369.524C180.653 368.931 180.055 370.016 177.62 370.773C176.105 371.244 173.748 373.123 171.85 374.607ZM171.85 374.607C169.827 376.188 165.537 378.235 162.322 381.521C146.885 397.304 135.601 430.26 136.066 464.094C136.417 489.731 142.809 509.138 151.484 528.893C158.093 543.942 179.829 567.42 200.288 575.705C227.345 586.661 260.809 559.941 264.781 556.171C282.843 539.024 293.694 530.011 305.468 504.476C309.369 496.016 311.521 490.103 313.369 481.966C315.203 473.891 317.331 466.834 317.781 458.551C318.209 450.677 321.764 440.754 318.606 433.396C317.286 430.322 313.653 432.978 313.175 435.081C312.195 439.398 316.491 443.677 320.138 448.177C325.588 454.903 332.827 459.375 338.258 463.203C345.283 468.155 353.939 471.605 361.944 474.27C378.31 479.717 391.296 484.84 408.069 488.65C416.561 490.58 423.289 489.458 431.571 486.297C438.736 483.562 442.701 478.505 446.981 471.958C455.568 458.823 458.314 450.044 461.791 434.74C463.315 428.029 465.555 418.739 464.02 412.167C463.237 408.813 461.937 406.936 460.9 403.616M460.9 403.616C459.506 399.151 457.746 394.812 455.253 390.852C454.64 389.88 449.713 383.053 447.979 385.375C446.45 387.421 445.11 391.165 447.057 393.25C451.445 397.948 455.897 401.126 460.9 403.616ZM460.9 403.616C464.616 405.466 469.753 408.385 474.255 409.81C480.714 411.854 487.151 414.679 495.465 416.077C505.328 417.736 513.939 417.66 519.511 413.29C529.152 405.729 533.632 399.084 537.631 387.562C542.075 374.757 545.269 361.088 541.119 347.624C534.116 324.908 513.802 310.145 497.232 294.939C491.51 289.687 486.134 283.852 479.289 280.173C474.551 277.626 466.032 272.633 466.032 272.633M466.032 272.633C466.032 272.633 451.21 269.262 450.174 270.978C449.138 272.695 466.032 272.633 466.032 272.633ZM466.032 272.633C466.032 272.633 474.665 270.238 479.973 268.629C483.814 267.464 499.755 262.223 506.941 252.201C515.567 240.172 514.348 225.115 511.993 214.636C509.194 202.18 499.462 192.891 488.396 186.181C478.084 179.927 468.262 176.644 456.436 173.957C452.156 172.985 445.341 171.518 445.629 173.22C446.198 176.594 462.722 162.263 467.848 157.75C474.821 151.61 479.179 142.043 483.153 133.647C487.251 124.988 489.781 118.722 493.215 108.257C497.033 96.6254 499.848 85.9114 500.637 75.5879C501.413 65.4401 497.136 58.7013 491.762 50.3818C488.55 45.4089 482.694 40.2354 477.794 37.0928C472.052 33.4105 466.879 30.7091 459.165 27.5167C447.025 22.492 436.785 21.0728 425.419 23.5722C416.881 25.4497 408.927 33.0221 401.761 40.3378C392.29 50.0066 386.065 57.4728 379.287 69.1108C375.779 75.1348 371.346 80.4017 368.172 86.5311C364.747 93.1465 362.077 98.3644 359.776 105.428C357.827 111.411 354.94 117.432 353.427 123.536C352.479 127.359 351.906 122.995 351.785 121.389C351.39 116.129 349.334 111.526 346.522 107.061C343.447 102.178 340.904 96.9057 336.083 93.6475C332.369 91.1378 328.878 86.4446 325.477 83.6546C322.128 80.9071 318.39 78.0636 316.673 75.9688C315.336 74.3361 312.767 72.1541 310.914 71.1667C308.523 69.8925 304.105 66.7861 299.215 64.4672C292.615 61.3379 282.375 59.6782 276.311 58.3006C265.35 55.8106 259.339 54.9921 248.039 54.5202C243.31 54.3228 238.265 54.4616 233.824 56.3386C229.314 58.2444 227.13 61.842 224.008 65.3479C219.018 70.9513 216.838 80.3661 216.766 87.6794C216.678 96.6345 214.273 106.997 216.781 115.599C218.51 121.529 221.825 127.447 223.354 133.24M223.354 133.24C224.122 136.151 225.327 139.832 226.657 142.652C227.794 145.063 232.529 152.653 234.052 145.948C235.456 139.765 228.672 136.129 223.354 133.24ZM377.862 230.103C379.399 223.34 376.821 215.458 374.092 209.351C371.925 204.499 367.168 200.837 362.747 197.752C356.478 193.377 346.568 191.806 339.204 190.133C327.651 187.508 315.262 183.244 303.362 185.635C297.774 186.758 291.924 190.062 287.286 193.275C282.393 196.666 277.145 199.806 272.57 203.614C267.914 207.491 263.859 211.702 258.928 215.273C254.766 218.288 251.078 221.813 247.473 225.457C243.636 229.335 239.582 232.208 236.524 236.831C234.543 239.827 232.271 242.639 230.598 245.821C228.349 250.1 225.091 253.916 223.637 258.579C222.554 262.055 221.904 265.685 221.097 269.235C217.424 285.402 214.526 303.672 220.069 319.786C222.744 327.564 228.75 334.215 233.817 340.535C239.251 347.313 244.122 354.443 250.959 360.024C257.913 365.7 266.435 369.552 274.781 372.724C278.058 373.971 280.908 375.311 284.352 376.094C293.173 378.098 301.87 380.839 311.011 379.461C317.137 378.538 323.717 377.618 329.927 377.724C335.663 377.822 341.568 376.02 347.261 375.329C351.724 374.787 355.213 374.748 359.483 373.358C364.097 371.856 369.208 367.632 373.526 365.363C379.704 362.118 383.569 356.376 388.369 347.633C393.953 337.461 394.799 327.53 398.446 318.336C401.283 311.186 403.55 304.021 405.254 296.522L405.377 295.981C407.649 285.982 409.894 276.103 409.671 265.769C409.583 261.688 409.309 257.428 408.535 253.412C408.261 251.988 406.082 247.837 406.847 246.905M338.725 255.627C341.512 256.532 341.13 258.862 338.4 258.242C336.341 257.774 336.577 256.339 338.609 256.138M305.858 229.878C307.897 230.843 307.495 236.473 303.936 234.788C301.44 233.607 305.509 231.612 306.137 231.016M329.108 316.894C325.326 316.035 320.594 316.89 316.68 317.028C311.884 317.198 307.334 317.775 302.548 316.775C293.778 314.944 286.071 308.942 280.92 301.645C275.662 294.194 271.315 286.609 268.036 278.016C265.539 271.475 262.509 265.065 261.816 258.051" stroke="#AE3257" stroke-width="6" stroke-linecap="round"/>
</svg>
